<svg width="1400" height="1600" viewBox="0 0 1400 1600" xmlns="http://www.w3.org/2000/svg">
  <rect width="1400" height="1600" fill="#0f2b1f"/>
  <g opacity="0.95">
    <circle cx="250" cy="260" r="220" fill="#1b4d2f"/>
    <circle cx="1120" cy="360" r="280" fill="#2f6b43"/>
    <circle cx="380" cy="1220" r="320" fill="#163a27"/>
  </g>
  <g fill="none" stroke="#8de3a0" stroke-width="12" stroke-linecap="round" opacity="0.75">
    <path d="M220 420c90-90 220-100 320-32 100 68 140 188 112 314"/>
    <path d="M900 260c70-70 170-80 254-26 80 52 128 142 128 246"/>
    <path d="M340 920c76-86 188-118 292-84 120 38 188 144 200 254"/>
    <path d="M980 960c54-56 140-82 220-68 96 18 170 92 188 186"/>
  </g>
  <g fill="#6fd88a" opacity="0.16">
    <path d="M540 320c-46 108-96 182-192 236 74 22 156 18 236-30 30-76 24-152-44-206z"/>
    <path d="M844 470c-36 92-84 154-174 202 72 16 156 10 236-36 22-70 10-126-62-166z"/>
    <path d="M590 940c-38 84-78 144-156 188 70 26 152 24 226-8 24-64 16-128-70-180z"/>
  </g>
  <g fill="#b6f2c1" opacity="0.24">
    <circle cx="660" cy="760" r="96"/>
    <circle cx="1058" cy="804" r="78"/>
    <circle cx="430" cy="1040" r="72"/>
  </g>
  <g fill="none" stroke="#d9fbe1" stroke-width="8" opacity="0.45">
    <path d="M220 680c64 28 132 30 206 10"/>
    <path d="M930 740c58 18 122 18 184 0"/>
  </g>
  <g opacity="0.55">
    <rect x="170" y="1320" width="220" height="12" rx="6" fill="#8de3a0"/>
    <rect x="980" y="1280" width="180" height="12" rx="6" fill="#8de3a0"/>
    <rect x="630" y="1420" width="280" height="12" rx="6" fill="#8de3a0"/>
  </g>
</svg>